<svg id="icon-whats" width="84" height="84" viewBox="0 0 84 84" fill="none" xmlns="http://www.w3.org/2000/svg">
<path class="caminho1" d="M71.196 0H12.564C5.62509 0 0 5.62509 0 12.564V71.196C0 78.1349 5.62509 83.76 12.564 83.76H71.196C78.1349 83.76 83.76 78.1349 83.76 71.196V12.564C83.76 5.62509 78.1349 0 71.196 0Z" fill="#25D366"/>
<path class="caminho2" d="M20.122 64.2923L22.4124 53.6588C19.4686 49.0157 18.3203 43.4581 19.1827 38.0286C20.0452 32.599 22.8592 27.6708 27.0968 24.1685C31.3344 20.6662 36.7044 18.8305 42.1992 19.0058C47.6939 19.1812 52.9359 21.3555 56.9416 25.1208C60.9473 28.8862 63.4414 33.9838 63.956 39.4572C64.4705 44.9307 62.9702 50.4038 59.7364 54.8497C56.5027 59.2957 51.7578 62.4089 46.3919 63.6052C41.0261 64.8016 35.4081 63.9988 30.592 61.3477L20.122 64.2923Z" fill="#25D366" stroke="white" stroke-width="4.25344"/>
<path class="caminho2" d="M50.3869 44.6611C49.8961 44.3339 49.4053 44.1703 48.9145 44.8247L46.9514 47.4422C46.4606 47.7694 46.1334 47.933 45.479 47.6058C43.0251 46.297 39.5897 44.8247 36.645 39.9169C36.4814 39.2625 36.8086 38.9353 37.1358 38.6081L38.6081 36.3178C38.9353 35.9906 38.7717 35.6634 38.6081 35.3362L36.645 30.592C36.1542 29.2833 35.6634 29.4469 35.1726 29.4469H33.8639C33.5367 29.4469 32.8823 29.6105 32.228 30.2648C28.6289 33.8639 30.1012 38.9353 32.7187 42.2072C33.2095 42.8616 36.4814 48.7509 43.5159 51.8592C48.7509 54.1495 49.8961 53.8223 51.3684 53.4952C53.168 53.3316 54.9675 51.8592 55.7855 50.3869C55.949 49.8961 56.767 47.7694 56.1126 47.4422" fill="white"/>
</svg>
