<?xml version="1.0" encoding="UTF-8"?>
<!DOCTYPE svg PUBLIC "-//W3C//DTD SVG 1.1//EN" "http://www.w3.org/Graphics/SVG/1.1/DTD/svg11.dtd">
<!-- Creator: CorelDRAW -->
<svg id="modo-off" xmlns="http://www.w3.org/2000/svg" xml:space="preserve" width="50%" height="50%" version="1.1"
viewBox="0 0 21000 29700"
 xmlns:xlink="http://www.w3.org/1999/xlink"
 xmlns:xodm="http://www.corel.com/coreldraw/odm/2003">
 <defs>
 </defs>
 <g id="Layer_x0020_1">
  <metadata id="CorelCorpID_0Corel-Layer"/>
  <g id="modo-off.cdr">
    <path class="fil0 str0" d="M1823.92 477.96c0,27.61 10.36,30.35 29.98,49.98l503.79 503.78c24.74,24.74 24.28,31.59 51.58,31.59 10.02,0 28.79,-14.12 28.79,-30.39 0,-25.69 -9.08,-27.47 -31.59,-49.98l-251.09 -252.69c-12.39,-12.38 -23.66,-23.55 -35.99,-35.99l-216.71 -215.1c-19.62,-19.62 -22.36,-29.99 -49.98,-29.99 -11.89,0 -28.78,16.89 -28.78,28.79z"/>
   <path class="fil0 str0" d="M1980.65 506.75c1.85,6.91 7.42,10 12.15,15.04l21.59 21.58c0.23,0.24 0.56,0.58 0.79,0.81 22.26,23.08 11.41,20.95 40.49,15.19 84.74,-16.77 177.61,-4.93 252.86,32.12 22.38,11.01 46.59,25.47 66.72,40.44 23.09,17.17 44.5,44.34 64.41,44.34 22.88,0 57.61,-35.2 9.59,-71.97l-25.37 -21.01c-42.19,-31.4 -79.77,-54.05 -129.56,-71.95 -15.08,-5.42 -30.84,-10.25 -47.86,-14.52 -84.13,-21.09 -164.86,-18.02 -248.22,5.12 -5.84,1.62 -11.45,4.29 -17.59,4.81z"/>
   <path class="fil0 str0" d="M2324.5 805.82c21.09,0 35.19,-14.17 35.19,-36.79 0,-28.92 -70.52,-72.11 -91.69,-82.63 -40.11,-19.93 -82.36,-32.52 -141.81,-32.52 5.02,7.5 60.49,61.33 75.51,76.43 5.58,5.62 7.01,5.27 14.27,8.12 72.77,28.46 81.41,67.39 108.53,67.39z"/>
   <path class="fil0 str0" d="M2001.44 896.98c0,26.86 32.44,45.53 56.95,26.56 22.88,-17.71 39.9,-29.76 72.6,-29.76 8.35,0 24.45,3.01 31.44,5.34 11.67,3.9 16.82,7.33 26.13,12.25 -1.97,-7.37 -62.07,-64.34 -73.17,-75.57 -9.92,-10.04 -9.9,-14.06 -45.66,-0.07 -10.1,3.94 -20.47,8.58 -28.97,14.2 -14.81,9.79 -39.32,24.26 -39.32,47.05z"/>
   <path class="fil0 str0" d="M1900.68 769.03c0,33.73 33.71,50.25 62.77,24.39l19.3 -17.49c8.14,-6.63 35.8,-25.34 45.88,-27.69 -1.89,-7.06 -0.99,-1.69 -12.4,-13.19l-26.39 -24.79c-4.79,-4.82 -8.58,-9.58 -13.99,-13.2 -5.91,1.38 -17.83,9.91 -23.08,13.71 -4.33,3.14 -6.14,4.15 -10.14,7.45 -15.22,12.54 -41.95,31.2 -41.95,50.81z"/>
   <path class="fil0 str0" d="M1790.33 637.89c0,36.45 37.71,46.13 57.98,27.59l34.56 -29.41c5.24,-4.19 14.63,-9.42 17.81,-14.17l-47.58 -48.38c-5.4,1.73 -4.72,2.55 -9.37,5.81l-26.61 21.38c-9.74,9.27 -26.79,19.31 -26.79,37.18z"/>
   <path class="fil0 str0" d="M2130.99 1029.72c10.76,0 18.03,-4.25 23.66,-9.92 21.77,-21.94 10.83,-58.85 -26.86,-58.85 -41.07,0 -42.82,68.77 3.2,68.77z"/>
  </g>
 </g>
</svg>
