<svg width="84" height="84" viewBox="0 0 84 84" fill="none" xmlns="http://www.w3.org/2000/svg">
<path d="M71.196 0H12.564C5.62509 0 0 5.62509 0 12.564V71.196C0 78.1349 5.62509 83.76 12.564 83.76H71.196C78.1349 83.76 83.76 78.1349 83.76 71.196V12.564C83.76 5.62509 78.1349 0 71.196 0Z" fill="#37AEE2"/>
<path d="M32.5552 66.0919C30.7556 66.0919 30.9192 65.4375 30.4285 63.8016L25.1935 46.6242L65.2739 23.0667" fill="#C8DAEA"/>
<path d="M32.5551 66.0919C33.7003 66.0919 34.3547 65.4375 35.1726 64.7831L42.5344 57.7486L33.3731 52.1864" fill="#A9C9DD"/>
<path d="M33.3731 52.1864L55.4583 68.3822C57.7486 69.8545 59.7117 69.0366 60.3661 66.0919L69.3637 23.8847C70.1817 20.2856 67.8914 18.6497 65.4375 19.7948L12.9239 40.0805C9.48843 41.3892 9.48843 43.5159 12.2695 44.3339L25.8478 48.5873L56.9306 28.7925C58.403 27.9745 59.7117 28.3017 58.7302 29.4469" fill="#F6FBFE"/>
</svg>
