<svg width="84" height="84" viewBox="0 0 84 84" fill="none" xmlns="http://www.w3.org/2000/svg">
<rect width="83.76" height="83.76" rx="13" fill="#22A754"/>
<path d="M41.9079 18C26.3421 18 14 29.032 14 42.7331C14 47.0036 15.2895 51.0961 17.4079 54.7438C17.7763 55.2776 17.8684 55.9893 17.6842 56.7011L14.0921 66.3096C13.7237 67.1993 14.6447 68 15.6579 67.8221L25.6974 64.0854C26.25 63.8185 26.9868 63.9964 27.7237 64.3523C31.9605 66.5765 36.9342 68 42.3684 68C57.4737 67.7331 70 56.6121 70 43C69.9079 29.032 57.3816 18 41.9079 18ZM30.6711 46.9146C30.3026 47.4484 29.9342 48.0712 29.4737 48.427C29.0132 48.7829 28.4605 49.1388 27.7237 49.3167C27.1711 49.5836 26.4342 49.5836 25.6974 49.5836C24.7763 49.5836 23.9474 49.4947 23.1184 49.1388C22.2895 48.7829 21.4605 48.3381 20.9079 47.6263L20.6316 47.3594C20.5395 47.2705 20.6316 47.0036 20.9079 46.8256L22.75 45.1352C23.0263 44.8683 23.2105 44.8683 23.3026 45.0463C23.3947 45.1352 23.5789 45.4021 23.5789 45.4021C23.8553 45.758 24.1316 45.9359 24.5 46.2029C25.0526 46.5587 25.6974 46.5587 26.3421 46.4698C26.6184 46.4698 26.7105 46.3808 26.8947 46.2029L27.2632 45.847C27.3553 45.758 27.3553 45.4911 27.3553 45.4021C27.3553 44.9573 27.2632 44.8683 27.0789 44.6904C26.8026 44.4235 26.5263 44.2456 26.0658 44.1566C25.6053 44.0676 25.1447 43.8007 24.5 43.7117C23.9474 43.4448 23.3026 43.2669 22.8421 43C22.2895 42.6441 21.9211 42.1993 21.5526 41.7545C21.1842 41.2206 21 40.5089 21 39.6192C21 38.8185 21.0921 38.1068 21.4605 37.573C21.8289 37.0391 22.1974 36.5943 22.75 36.2384C23.2105 35.8826 23.7632 35.5267 24.5 35.4377C25.8816 35.0819 27.2632 35.0819 28.7368 35.5267C29.4737 35.7936 30.1184 36.2384 30.4868 36.4164L30.8553 36.6833C31.1316 36.7722 30.9474 37.1281 30.7632 37.395L29.0132 39.0854C28.7368 39.3523 28.4605 39.3523 28.1842 39.0854C27.9079 38.9964 27.8158 38.7295 27.7237 38.7295C27.1711 38.3737 26.3421 38.2847 25.6053 38.3737C25.3289 38.3737 25.2368 38.4626 25.1447 38.6406L24.9605 38.9075C24.8684 38.9964 24.8684 39.1744 24.8684 39.3523C24.8684 39.7082 24.9605 39.7972 25.1447 39.8861C25.4211 40.153 25.6974 40.242 26.1579 40.4199C26.6184 40.5089 27.0789 40.7758 27.7237 40.8648C28.2763 41.1317 28.9211 41.3096 29.3816 41.5765C29.9342 41.9324 30.3026 42.3772 30.6711 42.8221C31.0395 43.3559 31.2237 44.0676 31.2237 44.9573C31.1316 45.669 31.0395 46.3808 30.6711 46.9146ZM50.1053 48.516C50.1053 49.2278 49.5526 49.6726 48.8158 49.6726H47.6184C46.8816 49.6726 46.6053 49.2278 46.6053 48.516V41.8434C46.6053 41.1317 45.6842 41.0427 45.4079 41.5765L43.3816 46.6477C43.2895 47.0925 42.8289 47.3594 42.3684 47.3594H41.5395C41.0789 47.3594 40.6184 47.0036 40.5263 46.6477L38.4079 41.5765C38.1316 41.0427 37.2105 41.1317 37.2105 41.8434V48.516C37.2105 49.2278 36.6579 49.6726 35.9211 49.6726H34.7237C33.9868 49.6726 33.7105 49.2278 33.7105 48.516V36.0605C33.7105 35.3488 34.1711 34.9039 34.7237 34.9039H37.7632C38.2237 34.9039 38.6842 35.2598 38.7763 35.6157L41.0789 41.4875C41.3553 41.9324 42 41.9324 42.0921 41.4875L44.3947 35.6157C44.4868 35.1708 44.9474 34.9039 45.4079 34.9039H48.5395C49.2763 34.9039 49.8289 35.3488 49.8289 36.0605C50.1053 36.0605 50.1053 48.516 50.1053 48.516ZM62.3553 47.0036C61.9868 47.5374 61.6184 48.1601 61.0658 48.516C60.6053 48.8719 60.0526 49.2278 59.3158 49.4057C58.5789 49.6726 58.0263 49.6726 57.2895 49.6726C56.3684 49.6726 55.5395 49.5836 54.7105 49.2278C53.8816 48.8719 53.0526 48.427 52.5 47.7153L52.2237 47.4484C52.1316 47.3594 52.2237 47.0925 52.5 46.9146L54.3421 45.2242C54.6184 44.9573 54.8026 44.9573 54.8947 45.1352C54.9868 45.3132 55.1711 45.4911 55.1711 45.4911C55.4474 45.847 55.7237 46.0249 56.0921 46.2918C56.6447 46.6477 57.3816 46.6477 57.9342 46.5587C58.2105 46.4698 58.3947 46.4698 58.4868 46.2918L58.8553 45.9359C58.8553 45.9359 58.9474 45.5801 58.9474 45.4911C58.9474 45.0463 58.8553 44.9573 58.6711 44.7794C58.3947 44.5125 58.1184 44.3345 57.6579 44.2456C57.1974 44.1566 56.7368 43.8897 56.0921 43.8007C55.5395 43.5338 54.8947 43.3559 54.4342 43.089C53.8816 42.7331 53.4211 42.2883 53.0526 41.8434C52.6842 41.3096 52.5 40.5979 52.5 39.7082C52.5 38.9075 52.5921 38.1957 52.9605 37.6619C53.3289 37.1281 53.6974 36.6833 54.25 36.3274C54.7105 35.9715 55.4474 35.6157 56 35.5267C57.3816 35.1708 58.7632 35.1708 60.2368 35.6157C60.9737 35.8826 61.6184 36.3274 61.9868 36.5943L62.3553 36.9502C62.6316 37.0391 62.4474 37.395 62.2632 37.6619L60.5132 39.3523C60.2368 39.6192 59.9605 39.6192 59.6842 39.3523C59.4079 39.2633 59.3158 38.9964 59.2237 38.9964C58.6711 38.6406 57.8421 38.5516 57.1053 38.6406C56.8289 38.6406 56.7368 38.7295 56.6447 38.9075L56.2763 39.2633C56.1842 39.3523 56.1842 39.6192 56.1842 39.7082C56.1842 40.0641 56.2763 40.153 56.4605 40.242C56.7368 40.5089 57.0132 40.5979 57.4737 40.7758C57.9342 40.8648 58.3947 41.1317 59.0395 41.2206C59.5921 41.4875 60.2368 41.6655 60.6974 41.9324C61.25 42.2883 61.6184 42.7331 62.0789 43.1779C62.4474 43.7117 62.6316 44.4235 62.6316 45.3132C62.9079 45.669 62.7237 46.4698 62.3553 47.0036Z" fill="white"/>
</svg>
