<svg width="84" height="84" viewBox="0 0 84 84" fill="none" xmlns="http://www.w3.org/2000/svg">
<path d="M71.196 0H12.564C5.62509 0 0 5.62509 0 12.564V71.196C0 78.1349 5.62509 83.76 12.564 83.76H71.196C78.1349 83.76 83.76 78.1349 83.76 71.196V12.564C83.76 5.62509 78.1349 0 71.196 0Z" fill="#5F01D1"/>
<path d="M33.2095 66.0919H23.0667L27.1566 56.4398L15.8686 29.4469H26.175L32.228 44.9883L38.2809 29.4469H48.4237M57.9122 41.88H46.6242L56.767 17.6681H68.055" fill="white"/>
<path d="M49.5689 56.6034C53.0022 56.6034 55.7855 53.8202 55.7855 50.3869C55.7855 46.9536 53.0022 44.1703 49.5689 44.1703C46.1356 44.1703 43.3523 46.9536 43.3523 50.3869C43.3523 53.8202 46.1356 56.6034 49.5689 56.6034Z" fill="white"/>
</svg>
