<svg width="84" height="84" viewBox="0 0 84 84" fill="none" xmlns="http://www.w3.org/2000/svg">
<path d="M71.196 0H12.564C5.62509 0 0 5.62509 0 12.564V71.196C0 78.1349 5.62509 83.76 12.564 83.76H71.196C78.1349 83.76 83.76 78.1349 83.76 71.196V12.564C83.76 5.62509 78.1349 0 71.196 0Z" fill="#0078D7"/>
<path d="M14.2327 36.9722C13.4172 41.4263 13.6951 46.0119 15.0426 50.3349C16.3901 54.658 18.7669 58.5893 21.9688 61.7912C25.1707 64.9931 29.102 67.3699 33.4251 68.7174C37.7481 70.0649 42.3337 70.3429 46.7878 69.5274C64.6195 78.1978 77.0527 59.0574 69.5273 46.7878C73.29 25.1934 53.4951 10.7972 36.9722 14.2327C33.7969 12.4365 30.1204 11.7305 26.5057 12.2226C22.8909 12.7147 19.5371 14.3779 16.9575 16.9575C14.3779 19.5371 12.7147 22.891 12.2226 26.5057C11.7305 30.1205 12.4365 33.7969 14.2327 36.9722ZM53.6587 30.1013C56.2762 33.8639 51.0412 36.8086 49.0781 34.5183C46.4606 31.5736 43.8431 30.1013 41.062 30.2649C33.8639 30.7556 34.0275 36.8086 40.2441 37.6266C48.7509 38.9353 56.4398 41.2256 55.7855 48.7509C54.9675 57.2578 48.0966 59.7117 41.062 59.221C32.5551 58.5666 29.9377 55.6219 28.3017 52.5136C26.3386 48.7509 31.9008 45.1519 34.1911 49.2417C37.9537 55.2947 44.8247 54.4767 46.9514 52.0228C50.2233 48.2602 46.7878 45.9699 43.1887 45.3155C39.2625 44.4975 35.1726 43.6795 32.0644 42.0436C27.1566 39.4261 25.0298 26.993 37.9537 24.8663C43.8431 23.8847 50.8776 25.6842 53.6587 30.1013Z" fill="white"/>
</svg>
