<svg width="84" height="84" viewBox="0 0 84 84" fill="none" xmlns="http://www.w3.org/2000/svg">
<path d="M71.196 0H12.564C5.62509 0 0 5.62509 0 12.564V71.196C0 78.1349 5.62509 83.76 12.564 83.76H71.196C78.1349 83.76 83.76 78.1349 83.76 71.196V12.564C83.76 5.62509 78.1349 0 71.196 0Z" fill="#1877F2"/>
<path d="M58.1739 53.9859L60.0389 41.88H48.4238V34.0275C48.4238 30.7229 50.0433 27.4838 55.2456 27.4838H60.5297V17.1773C60.5297 17.1773 55.7364 16.3594 51.1558 16.3594C41.5855 16.3594 35.3363 22.1506 35.3363 32.6533V41.88H24.7027V53.9859H35.3363V83.76H48.4238V53.9859H58.1739Z" fill="white"/>
</svg>
