<svg width="84" height="84" viewBox="0 0 84 84" fill="none" xmlns="http://www.w3.org/2000/svg">
<rect width="83.76" height="83.76" rx="13" fill="#0072C6"/>
<path d="M17 21.8025V61.2112L46.9796 67.4973V16L17 21.8025ZM32.1039 50.6719C22.5735 50.0573 23.555 32.8786 32.3264 32.7422C41.7229 33.3632 40.8011 50.5349 32.1039 50.6719ZM32.2413 36.1057C27.2204 36.4543 27.4452 47.2104 32.1639 47.2968C37.1631 46.9746 36.8695 36.1892 32.2413 36.1057ZM52.0878 42.9565C52.5404 43.2892 53.0858 42.9565 53.0858 42.9565C52.5423 43.2892 67.9344 33.0652 67.9344 33.0652V51.5791C67.9344 53.5945 66.6443 54.4397 65.1937 54.4397H48.8732L48.8742 40.7496L52.0878 42.9565ZM48.8751 26.9184V36.9915L52.3953 39.2081C52.4881 39.2352 52.6893 39.2371 52.7821 39.2081L67.9325 28.9938C67.9325 27.7849 66.8049 26.9184 66.1685 26.9184H48.8751Z" fill="white"/>
</svg>
