<svg width="70" height="81" viewBox="0 0 70 81" fill="none" xmlns="http://www.w3.org/2000/svg">
<path d="M36.764 0.0671434C41.1619 0 45.5262 0.0335717 49.8906 0C50.1591 5.13647 52.0056 10.3737 55.7656 13.9994C59.5256 17.7259 64.83 19.438 70 20.0087V33.5381C65.1657 33.3703 60.2978 32.3631 55.8999 30.2817C53.9863 29.4088 52.207 28.3009 50.4613 27.1595C50.4277 36.9624 50.4948 46.7654 50.3941 56.5347C50.1256 61.2348 48.5813 65.9012 45.862 69.762C41.4641 76.2077 33.8433 80.4042 26.0211 80.5385C21.2203 80.8071 16.4196 79.4977 12.3238 77.0806C5.54236 73.0856 0.775176 65.7669 0.0701705 57.9112C0.00302714 56.2326 -0.0305445 54.554 0.0365989 52.909C0.640889 46.5304 3.79663 40.4203 8.6981 36.2574C14.271 31.4231 22.0596 29.1067 29.3447 30.4831C29.4118 35.4517 29.2104 40.4203 29.2104 45.3889C25.8868 44.3146 21.9925 44.6168 19.0717 46.6311C16.9567 48.0075 15.3453 50.1225 14.506 52.5061C13.801 54.2183 14.0024 56.0983 14.036 57.9112C14.8417 63.4169 20.146 68.0498 25.7861 67.5462C29.5461 67.5127 33.1383 65.3305 35.0854 62.1412C35.7233 61.0333 36.4283 59.8919 36.4619 58.5826C36.7976 52.5733 36.6633 46.5975 36.6969 40.5882C36.7305 27.0588 36.6633 13.563 36.764 0.0671434Z" fill="white"/>
</svg>
