<svg width="84" height="84" viewBox="0 0 84 84" fill="none" xmlns="http://www.w3.org/2000/svg">
<path d="M65.4642 0H18.2958C8.19133 0 0 8.19133 0 18.2958V65.4642C0 75.5687 8.19133 83.76 18.2958 83.76H65.4642C75.5687 83.76 83.76 75.5687 83.76 65.4642V18.2958C83.76 8.19133 75.5687 0 65.4642 0Z" fill="url(#paint0_radial_4_143)"/>
<path d="M41.8891 18.4272C30.0876 18.4272 20.9366 27.0754 20.9366 38.7511C20.9366 44.8588 23.4404 50.1389 27.5156 53.7846C27.8561 54.0884 28.0657 54.5179 28.0761 54.9789L28.1914 58.7085C28.1998 58.9828 28.2755 59.2511 28.4118 59.4894C28.5481 59.7277 28.7408 59.9289 28.973 60.0753C29.2053 60.2216 29.47 60.3087 29.7438 60.329C30.0176 60.3491 30.2921 60.3017 30.5433 60.1908L34.7024 58.3575C35.0533 58.2003 35.4515 58.1742 35.8233 58.2737C37.7352 58.7975 39.7677 59.0804 41.8891 59.0804C53.6907 59.0804 62.8417 50.4322 62.8417 38.7564C62.8417 27.0806 53.6907 18.4272 41.8891 18.4272Z" fill="white"/>
<path d="M29.3071 44.6964L35.4619 34.9325C35.6935 34.5649 35.9987 34.2493 36.3584 34.0056C36.718 33.7619 37.1244 33.5954 37.5516 33.5167C37.9788 33.438 38.4178 33.4486 38.8407 33.5481C39.2636 33.6475 39.6613 33.8336 40.0087 34.0945L44.9063 37.7663C45.125 37.9301 45.391 38.0181 45.6641 38.0172C45.9372 38.0162 46.2027 37.9263 46.4201 37.7611L53.0307 32.743C53.9107 32.0725 55.0631 33.1306 54.4764 34.0683L48.3164 43.8269C48.0849 44.1945 47.7796 44.5101 47.4199 44.7538C47.0603 44.9975 46.6539 45.164 46.2267 45.2428C45.7995 45.3215 45.3605 45.3108 44.9376 45.2114C44.5147 45.1119 44.117 44.9259 43.7696 44.665L38.872 40.9931C38.6534 40.8293 38.3873 40.7413 38.1142 40.7423C37.8411 40.7433 37.5756 40.8331 37.3582 40.9983L30.7476 46.0165C29.8676 46.6869 28.7152 45.6341 29.3071 44.6964Z" fill="url(#paint1_radial_4_143)"/>
<defs>
<radialGradient id="paint0_radial_4_143" cx="0" cy="0" r="1" gradientUnits="userSpaceOnUse" gradientTransform="translate(14.0298 83.7577) scale(92.136 92.1333)">
<stop stop-color="#0099FF"/>
<stop offset="0.6" stop-color="#A033FF"/>
<stop offset="0.9" stop-color="#FF5280"/>
<stop offset="1" stop-color="#FF7061"/>
</radialGradient>
<radialGradient id="paint1_radial_4_143" cx="0" cy="0" r="1" gradientUnits="userSpaceOnUse" gradientTransform="translate(27.9557 60.3323) scale(46.0956 46.0956)">
<stop stop-color="#0099FF"/>
<stop offset="0.6" stop-color="#A033FF"/>
<stop offset="0.9" stop-color="#FF5280"/>
<stop offset="1" stop-color="#FF7061"/>
</radialGradient>
</defs>
</svg>
