<svg width="84" height="84" viewBox="0 0 84 84" fill="none" xmlns="http://www.w3.org/2000/svg">
<path d="M71.196 0H12.564C5.62509 0 0 5.62509 0 12.564V71.196C0 78.1349 5.62509 83.76 12.564 83.76H71.196C78.1349 83.76 83.76 78.1349 83.76 71.196V12.564C83.76 5.62509 78.1349 0 71.196 0Z" fill="white"/>
<path d="M19.6313 64.1287V24.7149H64.1288V64.1287" fill="#F2F2F2"/>
<path d="M41.88 46.6242L19.6312 64.1287L18.9769 29.4469" fill="black" fill-opacity="0.05"/>
<path d="M19.6313 64.1287H15.8686C13.9055 64.1287 12.2695 62.4928 12.2695 60.3661V23.3939H19.6313V64.1287Z" fill="#D54C3F"/>
<path d="M51.8592 64.1288H64.4559V26.0114H13.4147" fill="black" fill-opacity="0.08"/>
<path d="M15.8686 19.7948H67.8914L41.88 38.2809" fill="#F2F2F2"/>
<path d="M64.1288 64.1287H67.8914C69.8545 64.1287 71.4905 62.4928 71.4905 60.3661V23.3939H64.1288V64.1287Z" fill="#B63524"/>
<path d="M15.8686 23.3939L41.88 42.2072L67.8914 23.3939" stroke="#DE5145" stroke-width="7.19813" stroke-linecap="round"/>
</svg>
