<svg width="84" height="84" viewBox="0 0 84 84" fill="none" xmlns="http://www.w3.org/2000/svg">
<path d="M71.196 0H12.564C5.62509 0 0 5.62509 0 12.564V71.196C0 78.1349 5.62509 83.76 12.564 83.76H71.196C78.1349 83.76 83.76 78.1349 83.76 71.196V12.564C83.76 5.62509 78.1349 0 71.196 0Z" fill="#ED1D24"/>
<path d="M69.8545 27.6473C69.2001 25.1934 67.0734 23.2303 64.6195 22.5759C59.0573 21.1036 25.5206 20.94 19.1405 22.5759C16.6865 23.2303 14.5598 25.1934 13.9055 27.6473C12.4331 33.8639 12.2695 49.7325 13.9055 56.1126C14.5598 58.5666 16.6865 60.5297 19.1405 61.1841C25.0298 62.82 58.5665 62.82 64.6195 61.1841C67.0734 60.5297 69.2001 58.5666 69.8545 56.1126C71.3269 50.2233 71.3269 33.7003 69.8545 27.6473Z" fill="white"/>
<path d="M35.9906 33.2095V50.5505L51.2049 41.88" fill="#ED1D24"/>
</svg>
