<svg width="84" height="84" viewBox="0 0 84 84" fill="none" xmlns="http://www.w3.org/2000/svg">
<path d="M75.5803 0H8.17969C3.66217 0 0 3.66217 0 8.17969V75.5803C0 80.0978 3.66217 83.76 8.17969 83.76H75.5803C80.0978 83.76 83.76 80.0978 83.76 75.5803V8.17969C83.76 3.66217 80.0978 0 75.5803 0Z" fill="url(#paint0_linear_8_261)"/>
<path d="M68.945 10.8888H51.2507C49.0822 10.8888 47.3244 12.6466 47.3244 14.8151V43.6076C47.3244 45.776 49.0822 47.5338 51.2507 47.5338H68.945C71.1134 47.5338 72.8712 45.776 72.8712 43.6076V14.8151C72.8712 12.6466 71.1134 10.8888 68.945 10.8888Z" fill="white"/>
<path d="M32.5093 10.8888H14.815C12.6466 10.8888 10.8888 12.6466 10.8888 14.815V64.5476C10.8888 66.716 12.6466 68.4738 14.815 68.4738H32.5093C34.6778 68.4738 36.4356 66.716 36.4356 64.5476V14.815C36.4356 12.6466 34.6778 10.8888 32.5093 10.8888Z" fill="white"/>
<defs>
<linearGradient id="paint0_linear_8_261" x1="10721.3" y1="0" x2="10721.3" y2="21442.6" gradientUnits="userSpaceOnUse">
<stop stop-color="#0091E6"/>
<stop offset="1" stop-color="#0079BF"/>
</linearGradient>
</defs>
</svg>
