<svg width="439" height="932" viewBox="0 0 439 932" fill="none" xmlns="http://www.w3.org/2000/svg">
<rect width="439" height="932" fill="#F5F5F5"/>
<path d="M73.196 212H14.564C7.62509 212 2 217.625 2 224.564V283.196C2 290.135 7.62509 295.76 14.564 295.76H73.196C80.1349 295.76 85.76 290.135 85.76 283.196V224.564C85.76 217.625 80.1349 212 73.196 212Z" fill="#1DA1F2"/>
<path d="M73.4905 236.866C71.5511 238.153 69.274 238.836 66.9467 238.829C69.4349 237.364 71.2979 235.035 72.1817 232.286C70.1192 234.029 67.5202 235.011 64.82 235.067C63.0397 233.243 60.7161 232.047 58.1979 231.656C55.6797 231.265 53.1027 231.702 50.8537 232.9C48.6046 234.098 46.8049 235.994 45.7245 238.302C44.644 240.61 44.3413 243.206 44.8616 245.7C40.2799 245.458 35.8003 244.256 31.7136 242.17C27.6269 240.084 24.0246 237.163 21.1405 233.594C19.7292 236.148 19.316 239.135 19.9809 241.976C20.6458 244.817 22.3415 247.31 24.7395 248.972C22.9297 248.998 21.1384 248.606 19.5045 247.827C19.5485 250.462 20.4751 253.007 22.1359 255.053C23.7968 257.099 26.096 258.53 28.6658 259.115C26.9552 259.562 25.166 259.618 23.4308 259.279C24.1793 261.613 25.6376 263.656 27.6024 265.122C29.5672 266.588 31.9406 267.405 34.3916 267.458C29.215 270.599 23.2687 272.241 17.2142 272.202C22.2849 275.513 28.1747 277.351 34.2281 277.512C40.2815 277.674 46.261 276.152 51.5009 273.117C56.7407 270.081 61.0354 265.651 63.9069 260.32C66.7783 254.988 68.1138 248.965 67.7647 242.919C69.9235 241.154 71.8476 239.12 73.4905 236.866Z" fill="white"/>
<path d="M73.196 318H14.564C7.62509 318 2 323.625 2 330.564V389.196C2 396.135 7.62509 401.76 14.564 401.76H73.196C80.1349 401.76 85.76 396.135 85.76 389.196V330.564C85.76 323.625 80.1349 318 73.196 318Z" fill="#1877F2"/>
<path d="M60.1739 371.986L62.0389 359.88H50.4238V352.028C50.4238 348.723 52.0433 345.484 57.2456 345.484H62.5297V335.177C62.5297 335.177 57.7364 334.359 53.1558 334.359C43.5855 334.359 37.3363 340.151 37.3363 350.653V359.88H26.7027V371.986H37.3363V401.76H50.4238V371.986H60.1739Z" fill="white"/>
<path d="M73.196 424H14.564C7.62509 424 2 429.625 2 436.564V495.196C2 502.135 7.62509 507.76 14.564 507.76H73.196C80.1349 507.76 85.76 502.135 85.76 495.196V436.564C85.76 429.625 80.1349 424 73.196 424Z" fill="#25D366"/>
<path d="M22.122 488.292L24.4124 477.659C21.4686 473.016 20.3203 467.458 21.1827 462.029C22.0452 456.599 24.8592 451.671 29.0968 448.169C33.3344 444.666 38.7044 442.831 44.1992 443.006C49.6939 443.181 54.9359 445.355 58.9416 449.121C62.9473 452.886 65.4414 457.984 65.956 463.457C66.4705 468.931 64.9702 474.404 61.7364 478.85C58.5027 483.296 53.7578 486.409 48.3919 487.605C43.0261 488.802 37.4081 487.999 32.592 485.348L22.122 488.292Z" fill="#25D366" stroke="white" stroke-width="4.25344"/>
<path d="M52.3869 468.661C51.8961 468.334 51.4053 468.17 50.9145 468.825L48.9514 471.442C48.4606 471.769 48.1334 471.933 47.479 471.606C45.0251 470.297 41.5897 468.825 38.645 463.917C38.4814 463.262 38.8086 462.935 39.1358 462.608L40.6081 460.318C40.9353 459.991 40.7717 459.663 40.6081 459.336L38.645 454.592C38.1542 453.283 37.6634 453.447 37.1726 453.447H35.8639C35.5367 453.447 34.8823 453.61 34.228 454.265C30.6289 457.864 32.1012 462.935 34.7187 466.207C35.2095 466.862 38.4814 472.751 45.5159 475.859C50.7509 478.15 51.8961 477.822 53.3684 477.495C55.168 477.332 56.9675 475.859 57.7855 474.387C57.949 473.896 58.767 471.769 58.1126 471.442" fill="white"/>
<path d="M72.196 530H13.564C6.62509 530 1 535.625 1 542.564V601.196C1 608.135 6.62509 613.76 13.564 613.76H72.196C79.1349 613.76 84.76 608.135 84.76 601.196V542.564C84.76 535.625 79.1349 530 72.196 530Z" fill="#37AEE2"/>
<path d="M33.5552 596.092C31.7556 596.092 31.9192 595.438 31.4285 593.802L26.1935 576.624L66.2739 553.067" fill="#C8DAEA"/>
<path d="M33.5551 596.092C34.7003 596.092 35.3547 595.437 36.1726 594.783L43.5344 587.749L34.3731 582.186" fill="#A9C9DD"/>
<path d="M34.3731 582.186L56.4583 598.382C58.7486 599.855 60.7117 599.037 61.3661 596.092L70.3637 553.885C71.1817 550.286 68.8914 548.65 66.4375 549.795L13.9239 570.08C10.4884 571.389 10.4884 573.516 13.2695 574.334L26.8478 578.587L57.9306 558.792C59.403 557.975 60.7117 558.302 59.7302 559.447" fill="#F6FBFE"/>
<path d="M72.196 636H13.564C6.62509 636 1 641.625 1 648.564V707.196C1 714.135 6.62509 719.76 13.564 719.76H72.196C79.1349 719.76 84.76 714.135 84.76 707.196V648.564C84.76 641.625 79.1349 636 72.196 636Z" fill="black"/>
<path d="M72.196 636H13.564C6.62509 636 1 641.625 1 648.564V707.196C1 714.135 6.62509 719.76 13.564 719.76H72.196C79.1349 719.76 84.76 714.135 84.76 707.196V648.564C84.76 641.625 79.1349 636 72.196 636Z" fill="url(#paint0_radial_0_1)"/>
<path d="M72.196 636H13.564C6.62509 636 1 641.625 1 648.564V707.196C1 714.135 6.62509 719.76 13.564 719.76H72.196C79.1349 719.76 84.76 714.135 84.76 707.196V648.564C84.76 641.625 79.1349 636 72.196 636Z" fill="url(#paint1_linear_0_1)"/>
<path d="M54.8223 652.687H30.9376C23.6193 652.687 17.6866 658.619 17.6866 665.938V689.822C17.6866 697.141 23.6193 703.073 30.9376 703.073H54.8223C62.1407 703.073 68.0734 697.141 68.0734 689.822V665.938C68.0734 658.619 62.1407 652.687 54.8223 652.687Z" stroke="white" stroke-width="4.90781"/>
<path d="M42.88 689.659C49.3852 689.659 54.6588 684.385 54.6588 677.88C54.6588 671.375 49.3852 666.101 42.88 666.101C36.3748 666.101 31.1013 671.375 31.1013 677.88C31.1013 684.385 36.3748 689.659 42.88 689.659Z" stroke="white" stroke-width="4.90781"/>
<path d="M57.767 663.975C58.3091 663.975 58.7486 663.535 58.7486 662.993C58.7486 662.451 58.3091 662.011 57.767 662.011C57.2249 662.011 56.7855 662.451 56.7855 662.993C56.7855 663.535 57.2249 663.975 57.767 663.975Z" stroke="white" stroke-width="4.90781"/>
<path d="M73.196 742H14.564C7.62509 742 2 747.625 2 754.564V813.196C2 820.135 7.62509 825.76 14.564 825.76H73.196C80.1349 825.76 85.76 820.135 85.76 813.196V754.564C85.76 747.625 80.1349 742 73.196 742Z" fill="#0077B5"/>
<path d="M25.2303 770.629C28.5733 770.629 31.2833 767.919 31.2833 764.576C31.2833 761.233 28.5733 758.523 25.2303 758.523C21.8873 758.523 19.1773 761.233 19.1773 764.576C19.1773 767.919 21.8873 770.629 25.2303 770.629Z" fill="white"/>
<path d="M41.9169 773.737V806.129V773.737ZM25.2303 773.737V806.129V773.737Z" fill="white"/>
<path d="M41.9169 773.737V806.129M25.2303 773.737V806.129" stroke="white" stroke-width="10.7972"/>
<path d="M47.1519 788.133C47.1519 784.862 49.2786 781.59 53.0413 781.59C56.9675 781.59 58.4399 784.534 58.4399 788.951V806.129H69.237V787.643C69.237 777.663 64.002 773.083 56.8039 773.083C51.2417 773.083 48.4606 776.191 47.1519 778.318" fill="white"/>
<path d="M71.196 848H12.564C5.62509 848 0 853.625 0 860.564V919.196C0 926.135 5.62509 931.76 12.564 931.76H71.196C78.1349 931.76 83.76 926.135 83.76 919.196V860.564C83.76 853.625 78.1349 848 71.196 848Z" fill="#BD081B"/>
<path d="M43.3523 858.634C26.3386 858.634 17.6681 870.903 17.6681 881.21C17.6681 887.263 19.9584 892.825 25.0298 894.788C25.8478 895.115 26.6658 894.788 26.993 893.97L27.4837 891.025C27.8109 890.044 27.6473 889.88 27.1566 889.062C25.6842 887.263 24.7027 885.136 24.7027 882.028C24.7027 872.866 31.41 864.687 42.3708 864.687C52.1864 864.687 57.4214 870.74 57.4214 878.592C57.4214 889.062 52.8408 897.569 45.9698 897.569C42.2072 897.569 39.4261 894.624 40.4077 890.698C41.3892 886.281 43.5159 881.373 43.5159 878.101C43.5159 875.157 42.0436 872.539 38.6081 872.539C34.6819 872.539 31.7372 876.629 31.7372 882.028C31.7372 885.299 32.8823 887.59 32.8823 887.59L28.1381 907.221C27.4301 911.894 27.5409 916.655 28.4653 921.29L28.9561 921.126C29.2833 920.636 34.0275 915.073 35.4998 909.348L38.1173 899.368C39.2625 901.822 42.8616 903.949 46.7878 903.949C58.403 903.949 66.2555 893.479 66.2555 879.246C66.2555 868.449 57.0942 858.634 43.3523 858.634Z" fill="white"/>
<path d="M75.196 106H16.564C9.62509 106 4 111.625 4 118.564V177.196C4 184.135 9.62509 189.76 16.564 189.76H75.196C82.1349 189.76 87.76 184.135 87.76 177.196V118.564C87.76 111.625 82.1349 106 75.196 106Z" fill="#ED1D24"/>
<path d="M73.8545 133.647C73.2001 131.193 71.0734 129.23 68.6195 128.576C63.0573 127.104 29.5206 126.94 23.1405 128.576C20.6865 129.23 18.5598 131.193 17.9055 133.647C16.4331 139.864 16.2695 155.732 17.9055 162.113C18.5598 164.567 20.6865 166.53 23.1405 167.184C29.0298 168.82 62.5665 168.82 68.6195 167.184C71.0734 166.53 73.2001 164.567 73.8545 162.113C75.3269 156.223 75.3269 139.7 73.8545 133.647Z" fill="white"/>
<path d="M39.9906 139.21V156.55L55.2049 147.88" fill="#ED1D24"/>
<path d="M71.4642 0H24.2958C14.1913 0 6 8.19133 6 18.2958V65.4642C6 75.5687 14.1913 83.76 24.2958 83.76H71.4642C81.5687 83.76 89.76 75.5687 89.76 65.4642V18.2958C89.76 8.19133 81.5687 0 71.4642 0Z" fill="url(#paint2_radial_0_1)"/>
<path d="M47.8891 18.4272C36.0876 18.4272 26.9366 27.0754 26.9366 38.7511C26.9366 44.8588 29.4404 50.1389 33.5156 53.7846C33.8561 54.0884 34.0657 54.5179 34.0761 54.9789L34.1914 58.7085C34.1998 58.9828 34.2755 59.2511 34.4118 59.4894C34.5481 59.7277 34.7408 59.9289 34.973 60.0753C35.2053 60.2216 35.47 60.3087 35.7438 60.329C36.0176 60.3491 36.2921 60.3017 36.5433 60.1908L40.7024 58.3575C41.0533 58.2003 41.4515 58.1742 41.8233 58.2737C43.7352 58.7975 45.7677 59.0804 47.8891 59.0804C59.6907 59.0804 68.8417 50.4322 68.8417 38.7564C68.8417 27.0806 59.6907 18.4272 47.8891 18.4272Z" fill="white"/>
<path d="M35.3071 44.6964L41.4619 34.9325C41.6935 34.5649 41.9987 34.2493 42.3584 34.0056C42.718 33.7619 43.1244 33.5954 43.5516 33.5167C43.9788 33.438 44.4178 33.4486 44.8407 33.5481C45.2636 33.6475 45.6613 33.8336 46.0087 34.0945L50.9063 37.7663C51.125 37.9301 51.391 38.0181 51.6641 38.0172C51.9372 38.0162 52.2027 37.9263 52.4201 37.7611L59.0307 32.743C59.9107 32.0725 61.0631 33.1306 60.4764 34.0683L54.3164 43.8269C54.0849 44.1945 53.7796 44.5101 53.4199 44.7538C53.0603 44.9975 52.6539 45.164 52.2267 45.2428C51.7995 45.3215 51.3605 45.3108 50.9376 45.2114C50.5147 45.1119 50.117 44.9259 49.7696 44.665L44.872 40.9931C44.6534 40.8293 44.3873 40.7413 44.1142 40.7423C43.8411 40.7433 43.5756 40.8331 43.3582 40.9983L36.7476 46.0165C35.8676 46.6869 34.7152 45.6341 35.3071 44.6964Z" fill="url(#paint3_radial_0_1)"/>
<path d="M191.196 0H132.564C125.625 0 120 5.62509 120 12.564V71.196C120 78.1349 125.625 83.76 132.564 83.76H191.196C198.135 83.76 203.76 78.1349 203.76 71.196V12.564C203.76 5.62509 198.135 0 191.196 0Z" fill="#0078D7"/>
<path d="M134.233 36.9722C133.417 41.4263 133.695 46.0119 135.043 50.3349C136.39 54.658 138.767 58.5893 141.969 61.7912C145.171 64.9931 149.102 67.3699 153.425 68.7174C157.748 70.0649 162.334 70.3429 166.788 69.5274C184.62 78.1978 197.053 59.0574 189.527 46.7878C193.29 25.1934 173.495 10.7972 156.972 14.2327C153.797 12.4365 150.12 11.7305 146.506 12.2226C142.891 12.7147 139.537 14.3779 136.957 16.9575C134.378 19.5371 132.715 22.891 132.223 26.5057C131.73 30.1205 132.437 33.7969 134.233 36.9722ZM173.659 30.1013C176.276 33.8639 171.041 36.8086 169.078 34.5183C166.461 31.5736 163.843 30.1013 161.062 30.2649C153.864 30.7556 154.027 36.8086 160.244 37.6266C168.751 38.9353 176.44 41.2256 175.785 48.7509C174.967 57.2578 168.097 59.7117 161.062 59.221C152.555 58.5666 149.938 55.6219 148.302 52.5136C146.339 48.7509 151.901 45.1519 154.191 49.2417C157.954 55.2947 164.825 54.4767 166.951 52.0228C170.223 48.2602 166.788 45.9699 163.189 45.3155C159.262 44.4975 155.173 43.6795 152.064 42.0436C147.157 39.4261 145.03 26.993 157.954 24.8663C163.843 23.8847 170.878 25.6842 173.659 30.1013Z" fill="white"/>
<path d="M191.196 105H132.564C125.625 105 120 110.625 120 117.564V176.196C120 183.135 125.625 188.76 132.564 188.76H191.196C198.135 188.76 203.76 183.135 203.76 176.196V117.564C203.76 110.625 198.135 105 191.196 105Z" fill="#5F01D1"/>
<path d="M153.21 171.092H143.067L147.157 161.44L135.869 134.447H146.175L152.228 149.988L158.281 134.447H168.424M177.912 146.88H166.624L176.767 122.668H188.055" fill="white"/>
<path d="M169.569 161.603C173.002 161.603 175.785 158.82 175.785 155.387C175.785 151.954 173.002 149.17 169.569 149.17C166.136 149.17 163.352 151.954 163.352 155.387C163.352 158.82 166.136 161.603 169.569 161.603Z" fill="white"/>
<rect x="120" y="211" width="83.76" height="83.76" rx="13" fill="#0072C6"/>
<path d="M137 232.803V272.211L166.98 278.497V227L137 232.803ZM152.104 261.672C142.573 261.057 143.555 243.879 152.326 243.742C161.723 244.363 160.801 261.535 152.104 261.672ZM152.241 247.106C147.22 247.454 147.445 258.21 152.164 258.297C157.163 257.975 156.869 247.189 152.241 247.106ZM172.088 253.957C172.54 254.289 173.086 253.957 173.086 253.957C172.542 254.289 187.934 244.065 187.934 244.065V262.579C187.934 264.594 186.644 265.44 185.194 265.44H168.873L168.874 251.75L172.088 253.957ZM168.875 237.918V247.992L172.395 250.208C172.488 250.235 172.689 250.237 172.782 250.208L187.932 239.994C187.932 238.785 186.805 237.918 186.169 237.918H168.875Z" fill="white"/>
<path d="M191.196 317H132.564C125.625 317 120 322.625 120 329.564V388.196C120 395.135 125.625 400.76 132.564 400.76H191.196C198.135 400.76 203.76 395.135 203.76 388.196V329.564C203.76 322.625 198.135 317 191.196 317Z" fill="white"/>
<path d="M139.631 381.129V341.715H184.129V381.129" fill="#F2F2F2"/>
<path d="M161.88 363.624L139.631 381.129L138.977 346.447" fill="black" fill-opacity="0.05"/>
<path d="M139.631 381.129H135.869C133.905 381.129 132.27 379.493 132.27 377.366V340.394H139.631V381.129Z" fill="#D54C3F"/>
<path d="M171.859 381.129H184.456V343.011H133.415" fill="black" fill-opacity="0.08"/>
<path d="M135.869 336.795H187.891L161.88 355.281" fill="#F2F2F2"/>
<path d="M184.129 381.129H187.891C189.855 381.129 191.49 379.493 191.49 377.366V340.394H184.129V381.129Z" fill="#B63524"/>
<path d="M135.869 340.394L161.88 359.207L187.891 340.394" stroke="#DE5145" stroke-width="7.19813" stroke-linecap="round"/>
<rect x="117" y="422" width="83.76" height="83.76" rx="13" fill="#22A754"/>
<path d="M158.908 440C143.342 440 131 451.032 131 464.733C131 469.004 132.289 473.096 134.408 476.744C134.776 477.278 134.868 477.989 134.684 478.701L131.092 488.31C130.724 489.199 131.645 490 132.658 489.822L142.697 486.085C143.25 485.819 143.987 485.996 144.724 486.352C148.961 488.577 153.934 490 159.368 490C174.474 489.733 187 478.612 187 465C186.908 451.032 174.382 440 158.908 440ZM147.671 468.915C147.303 469.448 146.934 470.071 146.474 470.427C146.013 470.783 145.461 471.139 144.724 471.317C144.171 471.584 143.434 471.584 142.697 471.584C141.776 471.584 140.947 471.495 140.118 471.139C139.289 470.783 138.461 470.338 137.908 469.626L137.632 469.359C137.539 469.27 137.632 469.004 137.908 468.826L139.75 467.135C140.026 466.868 140.211 466.868 140.303 467.046C140.395 467.135 140.579 467.402 140.579 467.402C140.855 467.758 141.132 467.936 141.5 468.203C142.053 468.559 142.697 468.559 143.342 468.47C143.618 468.47 143.711 468.381 143.895 468.203L144.263 467.847C144.355 467.758 144.355 467.491 144.355 467.402C144.355 466.957 144.263 466.868 144.079 466.69C143.803 466.423 143.526 466.246 143.066 466.157C142.605 466.068 142.145 465.801 141.5 465.712C140.947 465.445 140.303 465.267 139.842 465C139.289 464.644 138.921 464.199 138.553 463.754C138.184 463.221 138 462.509 138 461.619C138 460.819 138.092 460.107 138.461 459.573C138.829 459.039 139.197 458.594 139.75 458.238C140.211 457.883 140.763 457.527 141.5 457.438C142.882 457.082 144.263 457.082 145.737 457.527C146.474 457.794 147.118 458.238 147.487 458.416L147.855 458.683C148.132 458.772 147.947 459.128 147.763 459.395L146.013 461.085C145.737 461.352 145.461 461.352 145.184 461.085C144.908 460.996 144.816 460.73 144.724 460.73C144.171 460.374 143.342 460.285 142.605 460.374C142.329 460.374 142.237 460.463 142.145 460.641L141.961 460.907C141.868 460.996 141.868 461.174 141.868 461.352C141.868 461.708 141.961 461.797 142.145 461.886C142.421 462.153 142.697 462.242 143.158 462.42C143.618 462.509 144.079 462.776 144.724 462.865C145.276 463.132 145.921 463.31 146.382 463.577C146.934 463.932 147.303 464.377 147.671 464.822C148.039 465.356 148.224 466.068 148.224 466.957C148.132 467.669 148.039 468.381 147.671 468.915ZM167.105 470.516C167.105 471.228 166.553 471.673 165.816 471.673H164.618C163.882 471.673 163.605 471.228 163.605 470.516V463.843C163.605 463.132 162.684 463.043 162.408 463.577L160.382 468.648C160.289 469.093 159.829 469.359 159.368 469.359H158.539C158.079 469.359 157.618 469.004 157.526 468.648L155.408 463.577C155.132 463.043 154.211 463.132 154.211 463.843V470.516C154.211 471.228 153.658 471.673 152.921 471.673H151.724C150.987 471.673 150.711 471.228 150.711 470.516V458.06C150.711 457.349 151.171 456.904 151.724 456.904H154.763C155.224 456.904 155.684 457.26 155.776 457.616L158.079 463.488C158.355 463.932 159 463.932 159.092 463.488L161.395 457.616C161.487 457.171 161.947 456.904 162.408 456.904H165.539C166.276 456.904 166.829 457.349 166.829 458.06C167.105 458.06 167.105 470.516 167.105 470.516ZM179.355 469.004C178.987 469.537 178.618 470.16 178.066 470.516C177.605 470.872 177.053 471.228 176.316 471.406C175.579 471.673 175.026 471.673 174.289 471.673C173.368 471.673 172.539 471.584 171.711 471.228C170.882 470.872 170.053 470.427 169.5 469.715L169.224 469.448C169.132 469.359 169.224 469.093 169.5 468.915L171.342 467.224C171.618 466.957 171.803 466.957 171.895 467.135C171.987 467.313 172.171 467.491 172.171 467.491C172.447 467.847 172.724 468.025 173.092 468.292C173.645 468.648 174.382 468.648 174.934 468.559C175.211 468.47 175.395 468.47 175.487 468.292L175.855 467.936C175.855 467.936 175.947 467.58 175.947 467.491C175.947 467.046 175.855 466.957 175.671 466.779C175.395 466.512 175.118 466.335 174.658 466.246C174.197 466.157 173.737 465.89 173.092 465.801C172.539 465.534 171.895 465.356 171.434 465.089C170.882 464.733 170.421 464.288 170.053 463.843C169.684 463.31 169.5 462.598 169.5 461.708C169.5 460.907 169.592 460.196 169.961 459.662C170.329 459.128 170.697 458.683 171.25 458.327C171.711 457.972 172.447 457.616 173 457.527C174.382 457.171 175.763 457.171 177.237 457.616C177.974 457.883 178.618 458.327 178.987 458.594L179.355 458.95C179.632 459.039 179.447 459.395 179.263 459.662L177.513 461.352C177.237 461.619 176.961 461.619 176.684 461.352C176.408 461.263 176.316 460.996 176.224 460.996C175.671 460.641 174.842 460.552 174.105 460.641C173.829 460.641 173.737 460.73 173.645 460.907L173.276 461.263C173.184 461.352 173.184 461.619 173.184 461.708C173.184 462.064 173.276 462.153 173.461 462.242C173.737 462.509 174.013 462.598 174.474 462.776C174.934 462.865 175.395 463.132 176.039 463.221C176.592 463.488 177.237 463.665 177.697 463.932C178.25 464.288 178.618 464.733 179.079 465.178C179.447 465.712 179.632 466.423 179.632 467.313C179.908 467.669 179.724 468.47 179.355 469.004Z" fill="white"/>
<path d="M192.58 529H125.18C120.662 529 117 532.662 117 537.18V604.58C117 609.098 120.662 612.76 125.18 612.76H192.58C197.098 612.76 200.76 609.098 200.76 604.58V537.18C200.76 532.662 197.098 529 192.58 529Z" fill="url(#paint4_linear_0_1)"/>
<path d="M185.945 539.889H168.251C166.082 539.889 164.324 541.647 164.324 543.815V572.608C164.324 574.776 166.082 576.534 168.251 576.534H185.945C188.113 576.534 189.871 574.776 189.871 572.608V543.815C189.871 541.647 188.113 539.889 185.945 539.889Z" fill="white"/>
<path d="M149.509 539.889H131.815C129.647 539.889 127.889 541.647 127.889 543.815V593.548C127.889 595.716 129.647 597.474 131.815 597.474H149.509C151.678 597.474 153.436 595.716 153.436 593.548V543.815C153.436 541.647 151.678 539.889 149.509 539.889Z" fill="white"/>
<path d="M282.764 0.0671434C287.162 0 291.526 0.0335717 295.891 0C296.159 5.13647 298.006 10.3737 301.766 13.9994C305.526 17.7259 310.83 19.438 316 20.0087V33.5381C311.166 33.3703 306.298 32.3631 301.9 30.2817C299.986 29.4088 298.207 28.3009 296.461 27.1595C296.428 36.9624 296.495 46.7654 296.394 56.5347C296.126 61.2348 294.581 65.9012 291.862 69.762C287.464 76.2077 279.843 80.4042 272.021 80.5385C267.22 80.8071 262.42 79.4977 258.324 77.0806C251.542 73.0856 246.775 65.7669 246.07 57.9112C246.003 56.2326 245.969 54.554 246.037 52.909C246.641 46.5304 249.797 40.4203 254.698 36.2574C260.271 31.4231 268.06 29.1067 275.345 30.4831C275.412 35.4517 275.21 40.4203 275.21 45.3889C271.887 44.3146 267.992 44.6168 265.072 46.6311C262.957 48.0075 261.345 50.1225 260.506 52.5061C259.801 54.2183 260.002 56.0983 260.036 57.9112C260.842 63.4169 266.146 68.0498 271.786 67.5462C275.546 67.5127 279.138 65.3305 281.085 62.1412C281.723 61.0333 282.428 59.8919 282.462 58.5826C282.798 52.5733 282.663 46.5975 282.697 40.5882C282.73 27.0588 282.663 13.563 282.764 0.0671434Z" fill="black"/>
<path d="M394.764 2.06714C399.162 2 403.526 2.03357 407.891 2C408.159 7.13647 410.006 12.3737 413.766 15.9994C417.526 19.7259 422.83 21.438 428 22.0087V35.5381C423.166 35.3703 418.298 34.3631 413.9 32.2817C411.986 31.4088 410.207 30.3009 408.461 29.1595C408.428 38.9624 408.495 48.7654 408.394 58.5347C408.126 63.2348 406.581 67.9012 403.862 71.762C399.464 78.2077 391.843 82.4042 384.021 82.5385C379.22 82.8071 374.42 81.4977 370.324 79.0806C363.542 75.0856 358.775 67.7669 358.07 59.9112C358.003 58.2326 357.969 56.554 358.037 54.909C358.641 48.5304 361.797 42.4203 366.698 38.2574C372.271 33.4231 380.06 31.1067 387.345 32.4831C387.412 37.4517 387.21 42.4203 387.21 47.3889C383.887 46.3146 379.992 46.6168 377.072 48.6311C374.957 50.0075 373.345 52.1225 372.506 54.5061C371.801 56.2183 372.002 58.0983 372.036 59.9112C372.842 65.4169 378.146 70.0498 383.786 69.5462C387.546 69.5127 391.138 67.3305 393.085 64.1412C393.723 63.0333 394.428 61.8919 394.462 60.5826C394.798 54.5733 394.663 48.5975 394.697 42.5882C394.73 29.0588 394.663 15.563 394.764 2.06714Z" fill="white"/>
<path fill-rule="evenodd" clip-rule="evenodd" d="M261.214 189.589C259.886 189.531 256.547 188.946 253.164 188.056C249.806 187.188 247.513 186.029 247.513 186.029C246.251 185.397 245.79 184.399 245.613 183.368C245.667 183.388 245.186 180.13 245.186 173.827C245.186 169.043 245.445 166.48 245.564 165.67C245.691 164.818 246.121 164.12 247.267 164.172C248.413 164.227 249.971 164.199 253.635 164.84C258.005 165.621 260.146 166.281 261.186 166.625C262.126 166.95 263.115 167.658 263.307 168.986C263.307 168.986 263.813 172.475 263.805 177.765C263.813 182.047 263.492 186.289 263.347 187.661C263.211 188.931 262.543 189.647 261.214 189.589ZM280.998 174.876C280.998 174.119 280.678 173.414 280.062 172.856L268.741 162.37C267.442 161.084 265.896 160.282 264.016 159.907C264.016 159.907 259.745 158.912 253.387 157.905C247.029 156.898 245.369 157.012 245.369 157.012C239.732 157.012 239.529 162.689 239.47 163.263C239.331 164.633 239 168.265 239 173.32C239 179.286 239.269 183.42 239.593 185.948C240.086 189.804 243.222 191.613 244.665 192.298C245.031 192.471 248.948 194.037 252.919 195.193C255.596 195.975 259.885 197.116 261.894 197.416C262.555 197.517 266.436 198.146 268.269 195.85L280.299 181.117C280.798 180.435 280.998 180.157 280.998 179.112V174.876ZM307.291 153.385C305.585 153.221 303.868 153.186 302.156 153.279L275.1 155.672C275.1 155.672 273.307 155.93 272.285 157.218C271.495 158.214 271.329 159.045 271.329 159.045C271.686 159.381 271.831 159.519 272.028 159.69L282.713 169.984C283.907 171.092 284.6 172.17 284.6 173.784V179.582C284.6 180.613 284.506 181.479 283.9 182.257L278.17 189.61L283.935 191.723C286.123 192.404 288.154 192.384 290.438 192.056L315.255 186.674C315.255 186.674 319.731 185.549 319.731 181.533V167.248C319.731 166.972 319.562 166.735 319.258 166.793L303.411 169.736C302.819 169.849 302.449 170.328 302.449 170.864V177.784C302.449 178.198 302.958 178.531 303.411 178.435L308.376 177.34C308.634 177.273 308.834 177.452 308.844 177.784V180.017C308.82 180.476 308.438 180.793 307.9 180.91L302.28 182.049C302.284 182.032 298.508 182.957 298.508 179.145V170.319C298.508 166.467 301.464 166.077 301.464 166.077L318.912 162.899C319.367 162.818 319.731 162.438 319.731 162.026V158.43C319.715 154.461 315.658 154.215 315.658 154.215L307.291 153.385ZM274.862 115.937C281.351 116.198 286.27 122.02 285.933 129.099C285.559 136.159 279.934 141.79 273.682 141.547C267.194 141.286 262.491 135.407 262.827 128.328C263.202 121.269 268.61 115.694 274.862 115.937ZM301.004 132.497C301.27 127.67 304.916 123.855 309.22 124.01C313.312 124.183 316.579 128.282 316.36 132.951C316.096 137.792 312.393 141.462 308.099 141.333C303.996 141.132 300.787 137.182 301.004 132.497ZM322.76 133.128C322.748 123.6 315.244 115.939 306.008 115.939C300.616 115.939 295.724 118.635 292.559 122.636C290.126 112.466 281.139 104.972 270.38 105C257.538 105.034 247.214 115.515 247.257 128.44C247.3 141.495 257.679 152.103 270.38 152.066C271.111 152.058 306.108 149.838 306.008 149.836C316.094 149.013 322.811 142.434 322.76 133.128Z" fill="black"/>
<path fill-rule="evenodd" clip-rule="evenodd" d="M377.214 187.589C375.886 187.531 372.547 186.946 369.164 186.056C365.806 185.188 363.513 184.029 363.513 184.029C362.251 183.397 361.79 182.399 361.613 181.368C361.667 181.388 361.186 178.13 361.186 171.827C361.186 167.043 361.445 164.48 361.564 163.67C361.691 162.818 362.121 162.12 363.267 162.172C364.413 162.227 365.971 162.199 369.635 162.84C374.005 163.621 376.146 164.281 377.186 164.625C378.126 164.95 379.115 165.658 379.307 166.986C379.307 166.986 379.813 170.475 379.805 175.765C379.813 180.047 379.492 184.289 379.347 185.661C379.211 186.931 378.543 187.647 377.214 187.589ZM396.998 172.876C396.998 172.119 396.678 171.414 396.062 170.856L384.741 160.37C383.442 159.084 381.896 158.282 380.016 157.907C380.016 157.907 375.745 156.912 369.387 155.905C363.029 154.898 361.369 155.012 361.369 155.012C355.732 155.012 355.529 160.689 355.47 161.263C355.331 162.633 355 166.265 355 171.32C355 177.286 355.269 181.42 355.593 183.948C356.086 187.804 359.222 189.613 360.665 190.298C361.031 190.471 364.948 192.037 368.919 193.193C371.596 193.975 375.885 195.116 377.894 195.416C378.555 195.517 382.436 196.146 384.269 193.85L396.299 179.117C396.798 178.435 396.998 178.157 396.998 177.112V172.876ZM423.291 151.385C421.585 151.221 419.868 151.186 418.156 151.279L391.1 153.672C391.1 153.672 389.307 153.93 388.285 155.218C387.495 156.214 387.329 157.045 387.329 157.045C387.686 157.381 387.831 157.519 388.028 157.69L398.713 167.984C399.907 169.092 400.6 170.17 400.6 171.784V177.582C400.6 178.613 400.506 179.479 399.9 180.257L394.17 187.61L399.935 189.723C402.123 190.404 404.154 190.384 406.438 190.056L431.255 184.674C431.255 184.674 435.731 183.549 435.731 179.533V165.248C435.731 164.972 435.562 164.735 435.258 164.793L419.411 167.736C418.819 167.849 418.449 168.328 418.449 168.864V175.784C418.449 176.198 418.958 176.531 419.411 176.435L424.376 175.34C424.634 175.273 424.834 175.452 424.844 175.784V178.017C424.82 178.476 424.438 178.793 423.9 178.91L418.28 180.049C418.284 180.032 414.508 180.957 414.508 177.145V168.319C414.508 164.467 417.464 164.077 417.464 164.077L434.912 160.899C435.367 160.818 435.731 160.438 435.731 160.026V156.43C435.715 152.461 431.658 152.215 431.658 152.215L423.291 151.385ZM390.862 113.937C397.351 114.198 402.27 120.02 401.933 127.099C401.559 134.159 395.934 139.79 389.682 139.547C383.194 139.286 378.491 133.407 378.827 126.328C379.202 119.269 384.61 113.694 390.862 113.937ZM417.004 130.497C417.27 125.67 420.916 121.855 425.22 122.01C429.312 122.183 432.579 126.282 432.36 130.951C432.096 135.792 428.393 139.462 424.099 139.333C419.996 139.132 416.787 135.182 417.004 130.497ZM438.76 131.128C438.748 121.6 431.244 113.939 422.008 113.939C416.616 113.939 411.724 116.635 408.559 120.636C406.126 110.466 397.139 102.972 386.38 103C373.538 103.034 363.214 113.515 363.257 126.44C363.3 139.495 373.679 150.103 386.38 150.066C387.111 150.058 422.108 147.838 422.008 147.836C432.094 147.013 438.811 140.434 438.76 131.128Z" fill="white"/>
<defs>
<radialGradient id="paint0_radial_0_1" cx="0" cy="0" r="1" gradientUnits="userSpaceOnUse" gradientTransform="translate(34.504 719.76) scale(83.76)">
<stop offset="0.1" stop-color="#FFDD55"/>
<stop offset="0.5" stop-color="#FF543E"/>
<stop offset="1" stop-color="#C837AB"/>
</radialGradient>
<linearGradient id="paint1_linear_0_1" x1="1" y1="636" x2="17.752" y2="719.76" gradientUnits="userSpaceOnUse">
<stop offset="0.1" stop-color="#3771C8"/>
<stop offset="0.5" stop-color="#6600FF" stop-opacity="0"/>
</linearGradient>
<radialGradient id="paint2_radial_0_1" cx="0" cy="0" r="1" gradientUnits="userSpaceOnUse" gradientTransform="translate(20.0298 83.7577) scale(92.136 92.1333)">
<stop stop-color="#0099FF"/>
<stop offset="0.6" stop-color="#A033FF"/>
<stop offset="0.9" stop-color="#FF5280"/>
<stop offset="1" stop-color="#FF7061"/>
</radialGradient>
<radialGradient id="paint3_radial_0_1" cx="0" cy="0" r="1" gradientUnits="userSpaceOnUse" gradientTransform="translate(33.9557 60.3323) scale(46.0956 46.0956)">
<stop stop-color="#0099FF"/>
<stop offset="0.6" stop-color="#A033FF"/>
<stop offset="0.9" stop-color="#FF5280"/>
<stop offset="1" stop-color="#FF7061"/>
</radialGradient>
<linearGradient id="paint4_linear_0_1" x1="10838.3" y1="529" x2="10838.3" y2="21971.6" gradientUnits="userSpaceOnUse">
<stop stop-color="#0091E6"/>
<stop offset="1" stop-color="#0079BF"/>
</linearGradient>
</defs>
</svg>
