<svg width="84" height="84" viewBox="0 0 84 84" fill="none" xmlns="http://www.w3.org/2000/svg">
<path d="M71.196 0H12.564C5.62509 0 0 5.62509 0 12.564V71.196C0 78.1349 5.62509 83.76 12.564 83.76H71.196C78.1349 83.76 83.76 78.1349 83.76 71.196V12.564C83.76 5.62509 78.1349 0 71.196 0Z" fill="#0077B5"/>
<path d="M23.2303 28.6289C26.5733 28.6289 29.2833 25.9189 29.2833 22.5759C29.2833 19.233 26.5733 16.523 23.2303 16.523C19.8873 16.523 17.1773 19.233 17.1773 22.5759C17.1773 25.9189 19.8873 28.6289 23.2303 28.6289Z" fill="white"/>
<path d="M39.9169 31.7372V64.1287V31.7372ZM23.2303 31.7372V64.1287V31.7372Z" fill="white"/>
<path d="M39.9169 31.7372V64.1287M23.2303 31.7372V64.1287" stroke="white" stroke-width="10.7972"/>
<path d="M45.1519 46.1334C45.1519 42.8616 47.2786 39.5897 51.0413 39.5897C54.9675 39.5897 56.4399 42.5344 56.4399 46.9514V64.1287H67.237V45.6427C67.237 35.6634 62.002 31.0828 54.8039 31.0828C49.2417 31.0828 46.4606 34.1911 45.1519 36.3178" fill="white"/>
</svg>
