<svg width="84" height="84" viewBox="0 0 84 84" fill="none" xmlns="http://www.w3.org/2000/svg">
<path d="M71.196 0H12.564C5.62509 0 0 5.62509 0 12.564V71.196C0 78.1349 5.62509 83.76 12.564 83.76H71.196C78.1349 83.76 83.76 78.1349 83.76 71.196V12.564C83.76 5.62509 78.1349 0 71.196 0Z" fill="#BD081B"/>
<path d="M43.3523 10.6336C26.3386 10.6336 17.6681 22.9031 17.6681 33.2095C17.6681 39.2625 19.9584 44.8247 25.0298 46.7878C25.8478 47.115 26.6658 46.7878 26.993 45.9699L27.4837 43.0252C27.8109 42.0436 27.6473 41.88 27.1566 41.062C25.6842 39.2625 24.7027 37.1358 24.7027 34.0275C24.7027 24.8663 31.41 16.6866 42.3708 16.6866C52.1864 16.6866 57.4214 22.7395 57.4214 30.592C57.4214 41.062 52.8408 49.5689 45.9698 49.5689C42.2072 49.5689 39.4261 46.6242 40.4077 42.698C41.3892 38.281 43.5159 33.3731 43.5159 30.1013C43.5159 27.1566 42.0436 24.5391 38.6081 24.5391C34.6819 24.5391 31.7372 28.6289 31.7372 34.0275C31.7372 37.2994 32.8823 39.5897 32.8823 39.5897L28.1381 59.221C27.4301 63.8941 27.5409 68.6548 28.4653 73.29L28.9561 73.1264C29.2833 72.6356 34.0275 67.0735 35.4998 61.3477L38.1173 51.3685C39.2625 53.8224 42.8616 55.9491 46.7878 55.9491C58.403 55.9491 66.2555 45.4791 66.2555 31.2464C66.2555 20.4492 57.0942 10.6336 43.3523 10.6336Z" fill="white"/>
</svg>
