<svg width="84" height="84" viewBox="0 0 84 84" fill="none" xmlns="http://www.w3.org/2000/svg">
<path d="M71.196 0H12.564C5.62509 0 0 5.62509 0 12.564V71.196C0 78.1349 5.62509 83.76 12.564 83.76H71.196C78.1349 83.76 83.76 78.1349 83.76 71.196V12.564C83.76 5.62509 78.1349 0 71.196 0Z" fill="#1DA1F2"/>
<path d="M71.4905 24.8662C69.5511 26.1527 67.274 26.8358 64.9467 26.8294C67.4349 25.3636 69.2979 23.0348 70.1817 20.2856C68.1192 22.0292 65.5202 23.0111 62.82 23.0667C61.0397 21.2433 58.7161 20.0465 56.1979 19.6559C53.6797 19.2652 51.1027 19.7017 48.8537 20.9C46.6046 22.0983 44.8049 23.9936 43.7245 26.3016C42.644 28.6095 42.3413 31.2056 42.8616 33.7003C38.2799 33.4584 33.8003 32.2556 29.7136 30.17C25.6269 28.0844 22.0246 25.1626 19.1405 21.5944C17.7292 24.1481 17.316 27.1348 17.9809 29.9758C18.6458 32.8168 20.3415 35.31 22.7395 36.9722C20.9297 36.9977 19.1384 36.6059 17.5045 35.827C17.5485 38.4622 18.4751 41.0066 20.1359 43.053C21.7968 45.0994 24.096 46.5297 26.6658 47.115C24.9552 47.5617 23.166 47.6176 21.4308 47.2786C22.1793 49.6131 23.6376 51.6559 25.6024 53.1222C27.5672 54.5884 29.9406 55.4051 32.3916 55.4583C27.215 58.5985 21.2687 60.2409 15.2142 60.2025C20.2849 63.5128 26.1747 65.351 32.2281 65.5125C38.2815 65.6739 44.261 64.1522 49.5009 61.1168C54.7407 58.0814 59.0354 53.6514 61.9069 48.3199C64.7783 42.9885 66.1138 36.9647 65.7647 30.9192C67.9235 29.1538 69.8476 27.1197 71.4905 24.8662Z" fill="white"/>
</svg>
