<svg width="84" height="84" viewBox="0 0 84 84" fill="none" xmlns="http://www.w3.org/2000/svg">
<path d="M71.196 0H12.564C5.62509 0 0 5.62509 0 12.564V71.196C0 78.1349 5.62509 83.76 12.564 83.76H71.196C78.1349 83.76 83.76 78.1349 83.76 71.196V12.564C83.76 5.62509 78.1349 0 71.196 0Z" fill="black"/>
<path d="M71.196 0H12.564C5.62509 0 0 5.62509 0 12.564V71.196C0 78.1349 5.62509 83.76 12.564 83.76H71.196C78.1349 83.76 83.76 78.1349 83.76 71.196V12.564C83.76 5.62509 78.1349 0 71.196 0Z" fill="url(#paint0_radial_4_123)"/>
<path d="M71.196 0H12.564C5.62509 0 0 5.62509 0 12.564V71.196C0 78.1349 5.62509 83.76 12.564 83.76H71.196C78.1349 83.76 83.76 78.1349 83.76 71.196V12.564C83.76 5.62509 78.1349 0 71.196 0Z" fill="url(#paint1_linear_4_123)"/>
<path d="M53.8223 16.6866H29.9376C22.6193 16.6866 16.6866 22.6193 16.6866 29.9377V53.8223C16.6866 61.1407 22.6193 67.0734 29.9376 67.0734H53.8223C61.1407 67.0734 67.0734 61.1407 67.0734 53.8223V29.9377C67.0734 22.6193 61.1407 16.6866 53.8223 16.6866Z" stroke="white" stroke-width="4.90781"/>
<path d="M41.88 53.6588C48.3852 53.6588 53.6588 48.3852 53.6588 41.88C53.6588 35.3748 48.3852 30.1012 41.88 30.1012C35.3748 30.1012 30.1013 35.3748 30.1013 41.88C30.1013 48.3852 35.3748 53.6588 41.88 53.6588Z" stroke="white" stroke-width="4.90781"/>
<path d="M56.767 27.9745C57.3091 27.9745 57.7486 27.5351 57.7486 26.993C57.7486 26.4509 57.3091 26.0114 56.767 26.0114C56.2249 26.0114 55.7855 26.4509 55.7855 26.993C55.7855 27.5351 56.2249 27.9745 56.767 27.9745Z" stroke="white" stroke-width="4.90781"/>
<defs>
<radialGradient id="paint0_radial_4_123" cx="0" cy="0" r="1" gradientUnits="userSpaceOnUse" gradientTransform="translate(33.504 83.76) scale(83.76)">
<stop offset="0.1" stop-color="#FFDD55"/>
<stop offset="0.5" stop-color="#FF543E"/>
<stop offset="1" stop-color="#C837AB"/>
</radialGradient>
<linearGradient id="paint1_linear_4_123" x1="0" y1="0" x2="16.752" y2="83.76" gradientUnits="userSpaceOnUse">
<stop offset="0.1" stop-color="#3771C8"/>
<stop offset="0.5" stop-color="#6600FF" stop-opacity="0"/>
</linearGradient>
</defs>
</svg>
