<svg width="84" height="93" viewBox="0 0 84 93" fill="none" xmlns="http://www.w3.org/2000/svg">
<path fill-rule="evenodd" clip-rule="evenodd" d="M22.2143 84.5889C20.8863 84.5311 17.547 83.9458 14.1635 83.0556C10.8062 82.1879 8.51253 81.0289 8.51253 81.0289C7.25066 80.3966 6.79014 79.3986 6.61323 78.3678C6.6672 78.3879 6.18578 75.1298 6.18578 68.8274C6.18578 64.0432 6.44526 61.4797 6.56374 60.6703C6.69094 59.8176 7.12062 59.1197 8.26664 59.1725C9.41287 59.2266 10.9709 59.1992 14.6354 59.8395C19.0053 60.6208 21.1464 61.2807 22.1857 61.6254C23.1256 61.9496 24.1152 62.6584 24.3065 63.9862C24.3065 63.9862 24.8127 67.4752 24.805 72.7653C24.8125 77.0469 24.4924 81.289 24.3467 82.6606C24.2108 83.9308 23.5425 84.6469 22.2143 84.5889ZM41.9984 69.8758C41.9976 69.1191 41.6777 68.4141 41.0618 67.856L29.7411 57.3699C28.4421 56.0835 26.8964 55.2816 25.016 54.9071C25.016 54.9071 20.7449 53.9116 14.3871 52.9049C8.02908 51.8981 6.36877 52.0117 6.36877 52.0117C0.731759 52.0117 0.528688 57.6893 0.470463 58.2626C0.331293 59.633 0 63.2646 0 68.32C0 74.2862 0.268807 78.4204 0.5932 80.9476C1.08618 84.8042 4.22218 86.6126 5.66542 87.2977C6.0314 87.4705 9.94805 89.0367 13.9195 90.1935C16.5962 90.9745 20.8851 92.1165 22.8943 92.4163C23.5547 92.5166 27.4359 93.1463 29.2694 90.8502L41.2993 76.117C41.798 75.4347 41.9984 75.157 41.9984 74.1124V69.8758ZM68.2911 48.3849C66.5847 48.2212 64.8684 48.1863 63.1564 48.2794L36.1003 50.6721C36.1003 50.6721 34.3067 50.9302 33.2851 52.2178C32.4947 53.2139 32.3285 54.0451 32.3285 54.0451C32.6864 54.3812 32.831 54.519 33.0284 54.6896L43.7125 64.9839C44.9072 66.092 45.6004 67.1701 45.6004 68.7835V74.582C45.6004 75.613 45.5063 76.4793 44.8997 77.2567L39.1698 84.61L44.9348 86.7225C47.1226 87.4036 49.1544 87.3841 51.4381 87.0556L76.2553 81.6738C76.2553 81.6738 80.7306 80.5489 80.7312 76.5333V62.2478C80.7312 61.9721 80.562 61.7349 80.2575 61.793L64.4106 64.7356C63.8192 64.8492 63.4487 65.3276 63.4487 65.864V72.7844C63.4487 73.1976 63.9578 73.531 64.4106 73.435L69.3761 72.3401C69.6343 72.2725 69.8337 72.4519 69.8439 72.7844V75.0166C69.8202 75.4761 69.4381 75.793 68.9001 75.9096L63.2798 77.0486C63.2844 77.0321 59.5077 77.957 59.5077 74.1449V65.3187C59.5077 61.4672 62.464 61.0772 62.464 61.0772L79.9124 57.8994C80.3669 57.8185 80.7312 57.4377 80.7312 57.0257V53.4304C80.7148 49.4606 76.6578 49.2149 76.6578 49.2149L68.2911 48.3849ZM35.8618 10.9371C42.3512 11.198 47.2705 17.0196 46.9331 24.0993C46.5586 31.1588 40.9344 36.7898 34.6823 36.5465C28.1942 36.2856 23.4914 30.407 23.8274 23.3284C24.2019 16.269 29.6098 10.6939 35.8618 10.9371ZM62.0039 27.4968C62.2698 22.6698 65.9159 18.8548 70.2198 19.0096C74.3115 19.1833 77.579 23.2815 77.3599 27.9514C77.096 32.7924 73.3931 36.4621 69.0985 36.3329C64.9958 36.1325 61.7868 32.1819 62.0039 27.4968ZM83.7597 28.1277C83.7484 18.6 76.2441 10.9388 67.0075 10.9388C61.616 10.9388 56.7241 13.6345 53.5585 17.6358C51.1265 7.46558 42.1394 -0.0281199 31.3797 7.93203e-05C18.5383 0.0341619 8.2141 10.5154 8.2569 23.4397C8.29991 36.4952 18.6795 47.1028 31.3797 47.0663C32.111 47.0583 67.1075 44.8375 67.0075 44.8357C77.0939 44.013 83.8112 37.4337 83.7597 28.1277Z" fill="black"/>
</svg>
