<svg id="icone-enviar" width="50" height="35" viewBox="0 0 66 33" fill="none" xmlns="http://www.w3.org/2000/svg">
<path d="M65.0708 20.1112C64.9862 18.941 61.518 15.3227 61.518 15.3227C55.3288 9.11315 42.8094 1.60199 40.7933 0.646672C38.8619 -0.380292 38.7773 -0.236995 36.014 1.45869C33.2507 3.16632 31.7422 7.81153 31.7422 7.81153C31.7422 7.81153 25.3838 6.17556 12.3569 13.842C-0.698226 21.5681 0.00669654 29.2345 0.00669654 29.2345C-0.162484 34.4768 2.89687 32.1721 7.74671 28.6971C14.1897 24.0519 24.5379 20.971 29.0494 20.8277C33.5609 20.6844 32.3625 21.5681 31.9395 23.7056C31.5166 25.9028 32.574 28.7807 37.0009 28.4225C41.5265 28.0642 45.2484 27.6104 48.477 27.1089C48.7307 25.055 48.054 22.392 44.755 19.5261C44.755 19.5261 47.6452 18.8574 49.5343 21.58C49.5343 21.58 53.2563 18.8454 52.7629 13.4598C52.7629 13.4598 55.0186 19.132 58.7547 19.8724C58.7547 19.8724 58.9239 17.6752 61.9832 17.5319C61.9832 17.5319 60.1363 19.8724 62.237 23.2041C64.6196 21.8188 65.1553 20.6486 65.0708 20.1112Z" fill="white"/>
</svg>
