<svg width="50" height="50" viewBox="0 0 50 50" fill="none" xmlns="http://www.w3.org/2000/svg">
<path d="M1.70898 28.7598C0.797526 29.834 0.374349 31.1279 0.439453 32.6416C0.504557 34.1553 1.09049 35.4655 2.19727 36.5723L14.6973 49.0723C15.0228 49.3652 15.3727 49.5931 15.7471 49.7559C16.1214 49.9186 16.5039 50 16.8945 50H33.9355C34.6191 50 35.2458 49.7884 35.8154 49.3652C36.3851 48.9421 36.8001 48.3724 37.0605 47.6562L40.1855 34.668C40.4785 33.3659 40.3158 32.1126 39.6973 30.9082C39.0788 29.7038 38.1348 28.8249 36.8652 28.2715L26.2695 23.9258C25.944 23.763 25.708 23.5596 25.5615 23.3154C25.415 23.0713 25.3418 22.8027 25.3418 22.5098V12.5C25.3418 11.7839 25.1953 11.0921 24.9023 10.4248C24.6094 9.75749 24.235 9.14714 23.7793 8.59375C23.0632 7.87761 22.2331 7.4056 21.2891 7.17773C20.3451 6.94987 19.401 6.94987 18.457 7.17773C17.1875 7.50325 16.1621 8.19499 15.3809 9.25293C14.5996 10.3109 14.209 11.4909 14.209 12.793V33.1055L9.7168 28.6133C9.16341 28.0599 8.56934 27.6611 7.93457 27.417C7.2998 27.1729 6.5918 27.0508 5.81055 27.0508C5.0293 26.9531 4.27246 27.0589 3.54004 27.3682C2.80762 27.6774 2.19727 28.1413 1.70898 28.7598ZM14.5508 35.4492C14.6159 35.5469 14.738 35.6201 14.917 35.6689C15.096 35.7178 15.2344 35.7096 15.332 35.6445C15.4948 35.5469 15.6087 35.4248 15.6738 35.2783C15.7389 35.1318 15.7715 34.9935 15.7715 34.8633V12.6465C15.7715 11.6374 16.0563 10.7503 16.626 9.98535C17.1956 9.22038 17.9036 8.75651 18.75 8.59375C19.4661 8.43099 20.1579 8.43913 20.8252 8.61816C21.4925 8.7972 22.054 9.14714 22.5098 9.66797C22.9004 9.99349 23.2096 10.4085 23.4375 10.9131C23.6654 11.4176 23.7793 11.9466 23.7793 12.5V22.3633C23.7793 22.9818 23.9502 23.5677 24.292 24.1211C24.6338 24.6745 25.0814 25.0651 25.6348 25.293L36.2793 29.6875C37.1908 30.0781 37.8662 30.7048 38.3057 31.5674C38.7451 32.43 38.8509 33.3659 38.623 34.375L35.498 47.3633C35.4004 47.7539 35.2132 48.055 34.9365 48.2666C34.6598 48.4782 34.3262 48.584 33.9355 48.584H16.8945C16.6667 48.584 16.4632 48.5433 16.2842 48.4619C16.1051 48.3805 15.9342 48.2747 15.7715 48.1445L3.27148 35.6445C2.49023 34.8633 2.06706 33.903 2.00195 32.7637C1.93685 31.6243 2.21354 30.6966 2.83203 29.9805C3.22266 29.5898 3.67839 29.2887 4.19922 29.0771C4.72005 28.8656 5.25716 28.7598 5.81055 28.7598C6.33138 28.7598 6.8278 28.8656 7.2998 29.0771C7.77181 29.2887 8.20312 29.5898 8.59375 29.9805L14.5508 35.4492ZM30.3223 18.457C30.3874 18.457 30.4362 18.457 30.4688 18.457C30.5013 18.457 30.5501 18.457 30.6152 18.457C30.778 18.457 30.9326 18.4163 31.0791 18.335C31.2256 18.2536 31.3314 18.1315 31.3965 17.9688C31.7871 17.1224 32.0964 16.2598 32.3242 15.3809C32.5521 14.502 32.666 13.5905 32.666 12.6465C32.666 11.7025 32.5521 10.7747 32.3242 9.86328C32.0964 8.95182 31.7871 8.10547 31.3965 7.32422C31.1035 6.64062 30.7536 5.98958 30.3467 5.37109C29.9398 4.75261 29.4596 4.2155 28.9062 3.75977C27.6693 2.49023 26.2614 1.54622 24.6826 0.927734C23.1038 0.309246 21.5007 0 19.873 0C18.2129 0 16.6016 0.309246 15.0391 0.927734C13.4766 1.54622 12.1094 2.49023 10.9375 3.75977C10.3841 4.2155 9.8877 4.75261 9.44824 5.37109C9.00879 5.98958 8.67513 6.64062 8.44727 7.32422C8.05664 8.10547 7.7474 8.95182 7.51953 9.86328C7.29167 10.7747 7.17773 11.7025 7.17773 12.6465C7.17773 13.5905 7.29167 14.5182 7.51953 15.4297C7.7474 16.3411 8.05664 17.1875 8.44727 17.9688C8.51237 18.1315 8.65072 18.2617 8.8623 18.3594C9.07389 18.457 9.29362 18.4245 9.52148 18.2617C9.68425 18.1966 9.82259 18.0583 9.93652 17.8467C10.0505 17.6351 10.026 17.4154 9.86328 17.1875C9.53776 16.4714 9.26921 15.7064 9.05762 14.8926C8.84603 14.0788 8.74023 13.2812 8.74023 12.5C8.74023 11.7188 8.82975 10.9212 9.00879 10.1074C9.18783 9.29362 9.47266 8.52864 9.86328 7.8125C10.0911 7.25911 10.3923 6.71387 10.7666 6.17676C11.141 5.63965 11.5723 5.14323 12.0605 4.6875C13.1348 3.67839 14.3311 2.88086 15.6494 2.29492C16.9678 1.70898 18.3757 1.41602 19.873 1.41602C21.3379 1.41602 22.7458 1.68457 24.0967 2.22168C25.4476 2.75879 26.6439 3.58073 27.6855 4.6875C28.1413 5.14323 28.5563 5.63965 28.9307 6.17676C29.305 6.71387 29.6061 7.25911 29.834 7.8125C30.1595 8.52864 30.4281 9.29362 30.6396 10.1074C30.8512 10.9212 30.957 11.7188 30.957 12.5C30.957 13.2812 30.8675 14.0788 30.6885 14.8926C30.5094 15.7064 30.2246 16.4714 29.834 17.1875C29.7689 17.4154 29.777 17.6432 29.8584 17.8711C29.9398 18.099 30.0944 18.2943 30.3223 18.457ZM3.4668 4.6875C3.4668 4.45964 3.39355 4.27246 3.24707 4.12598C3.10059 3.97949 2.91341 3.90625 2.68555 3.90625C2.52279 3.90625 2.36816 3.94694 2.22168 4.02832C2.0752 4.1097 1.9694 4.23177 1.9043 4.39453C1.25326 5.63151 0.773112 6.96614 0.463867 8.39844C0.154622 9.83073 0 11.2467 0 12.6465C0 14.0462 0.154622 15.4622 0.463867 16.8945C0.773112 18.3268 1.25326 19.6777 1.9043 20.9473C1.9694 21.11 2.0752 21.224 2.22168 21.2891C2.36816 21.3542 2.52279 21.3867 2.68555 21.3867C2.75065 21.3867 2.79948 21.3867 2.83203 21.3867C2.86458 21.3867 2.91341 21.3867 2.97852 21.3867C3.14128 21.3216 3.27148 21.1833 3.36914 20.9717C3.4668 20.7601 3.43424 20.5404 3.27148 20.3125C2.75065 19.1406 2.33561 17.9036 2.02637 16.6016C1.71712 15.2995 1.5625 13.9811 1.5625 12.6465C1.5625 11.3118 1.71712 9.99349 2.02637 8.69141C2.33561 7.38932 2.75065 6.15234 3.27148 4.98047C3.36914 4.91536 3.42611 4.85026 3.44238 4.78516C3.45866 4.72005 3.4668 4.6875 3.4668 4.6875ZM36.7188 21.3867C36.8164 21.3867 36.8734 21.3867 36.8896 21.3867C36.9059 21.3867 36.9629 21.3867 37.0605 21.3867C37.1908 21.3867 37.3291 21.3542 37.4756 21.2891C37.6221 21.224 37.7441 21.11 37.8418 20.9473C38.4603 19.6126 38.9242 18.2454 39.2334 16.8457C39.5426 15.446 39.6973 14.0462 39.6973 12.6465C39.6973 11.2467 39.5426 9.847 39.2334 8.44727C38.9242 7.04753 38.4603 5.69661 37.8418 4.39453C37.7441 4.23177 37.6221 4.08529 37.4756 3.95508C37.3291 3.82487 37.1908 3.75977 37.0605 3.75977C36.8001 3.75977 36.6048 3.83301 36.4746 3.97949C36.3444 4.12598 36.2793 4.31315 36.2793 4.54102C36.2793 4.60612 36.2793 4.65495 36.2793 4.6875C36.2793 4.72005 36.2793 4.76888 36.2793 4.83398C36.8001 6.00586 37.2152 7.24284 37.5244 8.54492C37.8337 9.847 37.9883 11.1654 37.9883 12.5C37.9883 13.8346 37.8337 15.153 37.5244 16.4551C37.2152 17.7572 36.8001 18.9941 36.2793 20.166C36.1816 20.459 36.1735 20.7194 36.2549 20.9473C36.3363 21.1751 36.4909 21.3216 36.7188 21.3867Z" fill="#6EC1E4"/>
</svg>
