<svg width="54" height="54" viewBox="0 0 54 54" fill="none" xmlns="http://www.w3.org/2000/svg">
<path d="M43.875 5.0625C39.2145 5.0625 35.4375 8.83965 35.4375 13.5C35.4375 14.7591 35.7144 15.9554 36.2088 17.0267L43.875 32.0625L51.5413 17.0266C52.0356 15.9554 52.3125 14.7591 52.3125 13.5C52.3125 8.83965 48.5355 5.0625 43.875 5.0625ZM43.875 18.5625C41.0801 18.5625 38.8125 16.2949 38.8125 13.5C38.8125 10.7051 41.0801 8.4375 43.875 8.4375C46.6699 8.4375 48.9375 10.7051 48.9375 13.5C48.9375 16.2949 46.6699 18.5625 43.875 18.5625ZM46.3997 34.5377L49.4715 40.678L41.6833 44.5705L39.0729 31.5121L39.5112 31.0737L39.5574 31.0275L37.949 27.8635L37.125 28.6875L27 21.9375L16.875 28.6875L10.125 21.9375L0 42.1875L13.5 48.9375L27 42.1875L40.5 48.9375L54 42.1875L48.3047 30.8001L46.3997 34.5377ZM12.3135 44.5705L4.52851 40.678L11.0479 27.6328L14.4888 31.0737L14.9271 31.5121L12.3135 44.5705ZM25.3125 39.2575L15.873 43.9772L18.312 31.7856L18.7471 31.4956L25.3125 27.1187V39.2575ZM28.6875 39.2575V27.1187L35.2529 31.4956L35.6847 31.7856L38.1237 43.9772L28.6875 39.2575Z" fill="black"/>
</svg>
